# xmcd
#
# Track frame offsets:
#	150
#	13057
#	31337
#	45820
#	60230
#	76292
#	93085
#	105247
#	125940
#	136690
#	155205
#	167610
#	186950
#	202322
#	221397
#
# Disc length: 3070 seconds
#
# Revision: 0
# Processed by: cddbd v1.4b41PL2 Copyright (c) Steve Scherf et al.
# Submitted via: audiograbber 1.80
#
DISCID=bf0bfc0f
DTITLE=Terry Lockwood - From Live To Where
DYEAR=1900
DGENRE=
TTITLE0=Won't Look Back
TTITLE1=One Meatball
TTITLE2=Bottom Shelf
TTITLE3=Braggin'
TTITLE4=Love Struck
TTITLE5=Can't Stand The Way
TTITLE6=Take A Number
TTITLE7=St. James Infirmary
TTITLE8=In My Time Of Dying
TTITLE9=Fixin' To Die
TTITLE10=Walkin' Blues
TTITLE11=No Way To Get Along
TTITLE12=Die Wonderin'
TTITLE13=Atlanta Moan
TTITLE14=Lonesome Valley
EXTD=
EXTT0=
EXTT1=
EXTT2=
EXTT3=
EXTT4=
EXTT5=
EXTT6=
EXTT7=
EXTT8=
EXTT9=
EXTT10=
EXTT11=
EXTT12=
EXTT13=
EXTT14=
PLAYORDER=
